g triangle
v 0.4497065 -0.3115997 -0.4121726
v 0.5044912 -0.2912682 -0.4121726
v 0.4782353 -0.2761093 -0.4641341
v 0.426084 -0.2827421 -0.4758122
v -0.426084 -0.282742 -0.4758122
v -0.4497065 -0.3115996 -0.4121726
v -0.4782354 -0.2761092 -0.4641341
v -0.5044913 -0.2912681 -0.4121726
v -0.5044913 -0.2912681 0.4121726
v -0.4947065 -0.2336573 0.4121726
v -0.4497065 -0.3115996 0.4121726
v -0.4947065 -0.2336573 -0.4121726
v 0.4497065 -0.3115997 0.4121726
v 0.5044912 -0.2912682 -0.4121726
v 0.426084 -0.2827421 0.4758122
v -0.4260841 -0.282742 0.4758122
v -0.4782354 -0.2761092 0.4641341
v -0.5044913 -0.2912681 0.4121726
v 0.4782354 -0.2761093 0.4641341
v 0.5044913 -0.2912682 0.4121726
v 0.4947065 -0.2336574 -0.4121726
v 0.4782353 -0.2761093 -0.4641341
v 0.4579038 -0.2276285 -0.4758122
v 0.4947065 -0.2336574 0.4121726
v 0.045 0.545257 -0.4121726
v 0.03181979 0.5103706 -0.4758122
v -3.72529E-09 0.5522186 -0.4641341
v 7.450581E-09 0.5825363 -0.4121726
v 0.04500001 0.545257 0.4121726
v 9.313226E-09 0.5825363 0.4121726
v -3.72529E-09 0.5522186 0.4641341
v 0.03181981 0.5103706 0.4758122
v 0.4579039 -0.2276286 0.4758122
v 0.4782354 -0.2761093 0.4641341
v 0.5044913 -0.2912682 0.4121726
v -0.5044913 -0.2912681 -0.4121726
v -0.4782354 -0.2761092 -0.4641341
v -0.4579038 -0.2276285 -0.4758122
v -0.03181982 0.5103706 -0.4758122
v -0.04499999 0.5452571 -0.4121726
v -3.72529E-09 0.5522186 -0.4641341
v 7.450581E-09 0.5825363 -0.4121726
v 9.313226E-09 0.5825363 0.4121726
v -0.04500001 0.5452571 0.4121726
v -3.72529E-09 0.5522186 0.4641341
v -0.03181982 0.5103706 0.4758122
v -0.4579039 -0.2276285 0.4758122
v -0.4782354 -0.2761092 0.4641341
v -0.5044913 -0.2912681 0.4121726
v -2.235174E-08 0.4431993 -0.5021726
v -3.72529E-09 0.5522186 -0.4641341
v -0.03181982 0.5103706 -0.4758122
v 0.03181979 0.5103706 -0.4758122
v -0.4579038 -0.2276285 -0.4758122
v 0.3838219 -0.2215997 -0.5021726
v 0.4579038 -0.2276285 -0.4758122
v 0.4782353 -0.2761093 -0.4641341
v 0.426084 -0.2827421 -0.4758122
v -0.3838219 -0.2215996 -0.5021726
v -0.4782354 -0.2761092 -0.4641341
v -0.426084 -0.282742 -0.4758122
v -2.235174E-08 0.4431993 0.5021726
v -3.72529E-09 0.5522186 0.4641341
v 0.03181981 0.5103706 0.4758122
v -0.03181982 0.5103706 0.4758122
v 0.4579039 -0.2276286 0.4758122
v -0.383822 -0.2215996 0.5021726
v -0.4579039 -0.2276285 0.4758122
v -0.4782354 -0.2761092 0.4641341
v -0.4260841 -0.282742 0.4758122
v 0.3838219 -0.2215997 0.5021726
v 0.4782354 -0.2761093 0.4641341
v 0.426084 -0.2827421 0.4758122
vt 0.6386719 0.5449219
vt 0.6665039 0.5449219
vt 0.6474609 0.5
vt 0.6313477 0.5
vt 0.3684082 0.5
vt 0.361084 0.5449219
vt 0.333252 0.519043
vt 0.333252 0.5449219
vt 0.333252 0.9550781
vt 0.3054199 0.9550781
vt 0.361084 0.9550781
vt 0.3054199 0.5449219
vt 0.6386719 0.9550781
vt 0.6665039 0.5449219
vt 0.6313477 1
vt 0.3684082 1
vt 0.3522949 1
vt 0.333252 0.9550781
vt 0.6665039 0.980957
vt 0.6665039 0.9550781
vt 0.6943359 0.5449219
vt 0.6665039 0.519043
vt 0.7016602 0.5
vt 0.6943359 0.9550781
vt 0.972168 0.5449219
vt 0.9648438 0.5
vt 0.980957 0.5
vt 1 0.5449219
vt 0.972168 0.9550781
vt 1 0.9550781
vt 1 0.980957
vt 0.9648438 1
vt 0.7016602 1
vt 0.6855469 1
vt 0.6665039 0.9550781
vt 0.333252 0.5449219
vt 0.3144531 0.5
vt 0.2983398 0.5
vt 0.03509521 0.5
vt 0.02778625 0.5449219
vt -5.960464E-08 0.519043
vt -5.960464E-08 0.5449219
vt -5.960464E-08 0.9550781
vt 0.02778625 0.9550781
vt 0.01898193 1
vt 0.03509521 1
vt 0.2983398 1
vt 0.333252 0.980957
vt 0.333252 0.9550781
vt 0.75 0.4206543
vt 0.7382813 0.4694824
vt 0.7280273 0.4521484
vt 0.7719727 0.4521484
vt 0.5639648 0.1678467
vt 0.8979492 0.1646729
vt 0.9360352 0.1678467
vt 0.9458008 0.1505127
vt 0.9140625 0.1300049
vt 0.6020508 0.1646729
vt 0.565918 0.1300049
vt 0.5859375 0.1300049
vt 0.25 0.4206543
vt 0.2617188 0.4694824
vt 0.2719727 0.4521484
vt 0.2281494 0.4521484
vt 0.4360352 0.1678467
vt 0.1021729 0.1646729
vt 0.06402588 0.1678467
vt 0.0539856 0.1505127
vt 0.0859375 0.1300049
vt 0.3977051 0.1646729
vt 0.434082 0.1300049
vt 0.4140625 0.1300049
vn 0.1705322 -0.9609375 -0.2169189
vn 0.8359375 -0.482666 -0.2609863
vn 0.6289063 -0.3630371 -0.6879883
vn 0.1627197 -0.6259766 -0.7626953
vn -0.1627197 -0.6259766 -0.7626953
vn -0.1705322 -0.9609375 -0.2169189
vn -0.6289063 -0.3630371 -0.6879883
vn -0.8359375 -0.482666 -0.2609863
vn -0.8359375 -0.482666 0.2609863
vn -0.9174805 0.3327637 0.2169189
vn -0.1705322 -0.9609375 0.2169189
vn -0.9174805 0.3327637 -0.2169189
vn 0.1705322 -0.9609375 0.2169189
vn 0.8359375 -0.482666 -0.2609863
vn 0.1627197 -0.6259766 0.7626953
vn -0.1627197 -0.6259766 0.7626953
vn -0.6289063 -0.3630371 0.6879883
vn -0.8359375 -0.482666 0.2609863
vn 0.6289063 -0.3630371 0.6879883
vn 0.8359375 -0.482666 0.2609863
vn 0.9174805 0.3327637 -0.2169189
vn 0.6289063 -0.3630371 -0.6879883
vn 0.6230469 0.1719971 -0.7626953
vn 0.9174805 0.3327637 0.2169189
vn 0.7470703 0.628418 -0.2169189
vn 0.4606934 0.4538574 -0.7626953
vn 0 0.7260742 -0.6879883
vn 0 0.965332 -0.2609863
vn 0.7470703 0.628418 0.2169189
vn 0 0.965332 0.2609863
vn 0 0.7260742 0.6879883
vn 0.4606934 0.4538574 0.7626953
vn 0.6230469 0.1719971 0.7626953
vn 0.6289063 -0.3630371 0.6879883
vn 0.8359375 -0.482666 0.2609863
vn -0.8359375 -0.482666 -0.2609863
vn -0.6289063 -0.3630371 -0.6879883
vn -0.6230469 0.1719971 -0.7626953
vn -0.4604492 0.4538574 -0.7626953
vn -0.7470703 0.628418 -0.2169189
vn 0 0.7260742 -0.6879883
vn 0 0.965332 -0.2609863
vn 0 0.965332 0.2609863
vn -0.7470703 0.628418 0.2169189
vn 0 0.7260742 0.6879883
vn -0.4606934 0.4538574 0.7626953
vn -0.6230469 0.1719971 0.7626953
vn -0.6289063 -0.3630371 0.6879883
vn -0.8359375 -0.482666 0.2609863
vn 0 0.190918 -0.9814453
vn 0 0.7260742 -0.6879883
vn -0.4604492 0.4538574 -0.7626953
vn 0.4606934 0.4538574 -0.7626953
vn -0.6230469 0.1719971 -0.7626953
vn 0.1654053 -0.09545898 -0.9814453
vn 0.6230469 0.1719971 -0.7626953
vn 0.6289063 -0.3630371 -0.6879883
vn 0.1627197 -0.6259766 -0.7626953
vn -0.1654053 -0.09545898 -0.9814453
vn -0.6289063 -0.3630371 -0.6879883
vn -0.1627197 -0.6259766 -0.7626953
vn 0 0.190918 0.9814453
vn 0 0.7260742 0.6879883
vn 0.4606934 0.4538574 0.7626953
vn -0.4606934 0.4538574 0.7626953
vn 0.6230469 0.1719971 0.7626953
vn -0.1654053 -0.09545898 0.9814453
vn -0.6230469 0.1719971 0.7626953
vn -0.6289063 -0.3630371 0.6879883
vn -0.1627197 -0.6259766 0.7626953
vn 0.1654053 -0.09545898 0.9814453
vn 0.6289063 -0.3630371 0.6879883
vn 0.1627197 -0.6259766 0.7626953
g triangle_0
f 3/3/3 2/2/2 1/1/1
f 4/4/4 3/3/3 1/1/1
f 5/5/5 4/4/4 1/1/1
f 6/6/6 5/5/5 1/1/1
f 7/7/7 5/5/5 6/6/6
f 8/8/8 7/7/7 6/6/6
f 8/8/8 6/6/6 9/9/9
f 8/8/8 9/9/9 10/10/10
f 6/6/6 11/11/11 9/9/9
f 11/11/11 6/6/6 1/1/1
f 12/12/12 8/8/8 10/10/10
f 13/13/13 11/11/11 1/1/1
f 1/1/1 14/14/14 13/13/13
f 13/13/13 15/15/15 11/11/11
f 15/15/15 16/16/16 11/11/11
f 16/16/16 17/17/17 11/11/11
f 17/17/17 18/18/18 11/11/11
f 19/19/19 15/15/15 13/13/13
f 20/20/20 19/19/19 13/13/13
f 14/14/14 20/20/20 13/13/13
f 14/14/14 21/21/21 20/20/20
f 14/14/14 22/22/22 21/21/21
f 22/22/22 23/23/23 21/21/21
f 21/21/21 24/24/24 20/20/20
f 21/21/21 23/23/23 25/25/25
f 24/24/24 21/21/21 25/25/25
f 23/23/23 26/26/26 25/25/25
f 26/26/26 27/27/27 25/25/25
f 27/27/27 28/28/28 25/25/25
f 29/29/29 25/25/25 28/28/28
f 29/29/29 24/24/24 25/25/25
f 30/30/30 29/29/29 28/28/28
f 30/30/30 31/31/31 29/29/29
f 31/31/31 32/32/32 29/29/29
f 29/29/29 32/32/32 24/24/24
f 32/32/32 33/33/33 24/24/24
f 33/33/33 34/34/34 24/24/24
f 34/34/34 35/35/35 24/24/24
f 37/37/37 36/36/36 12/12/12
f 38/38/38 37/37/37 12/12/12
f 39/39/39 38/38/38 12/12/12
f 40/40/40 39/39/39 12/12/12
f 41/41/41 39/39/39 40/40/40
f 42/42/42 41/41/41 40/40/40
f 43/43/43 42/42/42 40/40/40
f 44/44/44 40/40/40 12/12/12
f 44/44/44 43/43/43 40/40/40
f 45/45/45 43/43/43 44/44/44
f 46/46/46 45/45/45 44/44/44
f 47/47/47 46/46/46 44/44/44
f 10/10/10 44/44/44 12/12/12
f 10/10/10 47/47/47 44/44/44
f 48/48/48 47/47/47 10/10/10
f 49/49/49 48/48/48 10/10/10
f 52/52/52 51/51/51 50/50/50
f 51/51/51 53/53/53 50/50/50
f 52/52/52 50/50/50 54/54/54
f 55/55/55 50/50/50 53/53/53
f 56/56/56 55/55/55 53/53/53
f 56/56/56 57/57/57 55/55/55
f 57/57/57 58/58/58 55/55/55
f 50/50/50 59/59/59 54/54/54
f 55/55/55 59/59/59 50/50/50
f 59/59/59 55/55/55 58/58/58
f 60/60/60 54/54/54 59/59/59
f 61/61/61 59/59/59 58/58/58
f 61/61/61 60/60/60 59/59/59
f 64/64/64 63/63/63 62/62/62
f 63/63/63 65/65/65 62/62/62
f 64/64/64 62/62/62 66/66/66
f 67/67/67 62/62/62 65/65/65
f 68/68/68 67/67/67 65/65/65
f 68/68/68 69/69/69 67/67/67
f 69/69/69 70/70/70 67/67/67
f 62/62/62 71/71/71 66/66/66
f 62/62/62 67/67/67 71/71/71
f 71/71/71 67/67/67 70/70/70
f 72/72/72 66/66/66 71/71/71
f 73/73/73 71/71/71 70/70/70
f 73/73/73 72/72/72 71/71/71
